<svg width="114" height="127" viewBox="0 0 114 127" fill="none" xmlns="http://www.w3.org/2000/svg">
<path d="M94.8999 0.0505715C86.4999 0.750571 79.6999 7.45057 78.9999 15.9506C78.6999 19.5506 79.5 22.9506 81.0999 25.8506C82.5 28.4506 82.2999 31.7506 80.4999 34.1506L63.1999 56.6506C61.3999 58.9506 58.4999 60.0506 55.6999 59.4506C53.9999 59.1506 52.1999 59.0506 50.2999 59.2506C42.0999 60.1506 35.5999 66.9506 34.9999 75.1506C34.1999 85.8506 42.9999 94.6506 53.6999 93.8506C62.1999 93.1506 69 86.1506 69.5999 77.7506C69.7999 74.0506 68.8999 70.6506 67.1999 67.7506C65.5999 65.0506 65.7999 61.7506 67.6999 59.2506L84.5999 37.1506C86.3999 34.8506 89.4999 33.7506 92.3999 34.3506C94.1999 34.7506 96.0999 34.9506 97.8999 34.6506C106.2 33.8506 112.9 27.1506 113.6 18.7506C114.5 8.05057 105.6 -0.749429 94.8999 0.0505715Z" fill="#00A884"/>
<path d="M76.7999 60.4506C75.9999 61.4506 75.8999 62.7506 76.5999 63.9506C78.9999 68.1506 80.3999 73.0506 80.3999 78.2506C80.3999 94.5506 66.7999 107.851 49.9999 107.851C33.1999 107.851 19.5999 94.6506 19.5999 78.2506C19.5999 61.9506 33.1999 48.6506 49.9999 48.6506C52.3999 48.6506 54.7999 48.9506 56.9999 49.4506C58.1999 49.7506 59.3999 49.3506 60.1999 48.3506L68.5999 37.6506C69.8999 35.9506 69.1999 33.5506 67.1999 32.8506C61.7999 30.9506 56.0999 29.8506 49.9999 29.8506C22.4999 29.8506 0.299927 51.4506 0.299927 78.2506C0.299927 105.051 22.4999 126.651 49.9999 126.651C77.4999 126.651 99.6999 105.051 99.6999 78.2506C99.6999 67.6506 96.1999 57.7506 90.1999 49.7506C88.9999 48.0506 86.4999 48.0506 85.1999 49.7506L76.7999 60.4506Z" fill="#00A884"/>
</svg>
